name ./resultDataOpenSim/trcMotMarkerGrf/sub10/grf-05-03.mot
datacolumns 19
datarows 27
range 1.53600000 1.64000000
endheader

                time	     ground_force_vx	     ground_force_vy	     ground_force_vz	     ground_force_px	     ground_force_py	     ground_force_pz	   l_ground_force_vx	   l_ground_force_vy	   l_ground_force_vz	   l_ground_force_px	   l_ground_force_py	   l_ground_force_pz	     ground_torque_x	     ground_torque_y	     ground_torque_z	   l_ground_torque_x	   l_ground_torque_y	   l_ground_torque_z	
          1.53600000	        -33.38690676	        382.80206824	        -10.62109091	          0.91646601	          0.00000000	         -0.08274752	          0.00000000	          0.00000000	          0.00000000	          0.00000000	          0.00000000	          0.00000000	          0.00000000	         -0.64663296	          0.00000000	          0.00000000	          0.00000000	          0.00000000	
          1.54000000	        -31.15541120	        375.27025534	        -10.63671576	          0.91733166	          0.00000000	         -0.08286871	          0.00000000	          0.00000000	          0.00000000	          0.00000000	          0.00000000	          0.00000000	          0.00000000	         -0.60377934	          0.00000000	          0.00000000	          0.00000000	          0.00000000	
          1.54400000	        -28.97799948	        368.51609229	        -10.56992616	          0.91801961	          0.00000000	         -0.08299000	          0.00000000	          0.00000000	          0.00000000	          0.00000000	          0.00000000	          0.00000000	          0.00000000	         -0.55965139	          0.00000000	          0.00000000	          0.00000000	          0.00000000	
          1.54800000	        -26.95112732	        362.44572519	        -10.36322640	          0.91855019	          0.00000000	         -0.08311145	          0.00000000	          0.00000000	          0.00000000	          0.00000000	          0.00000000	          0.00000000	          0.00000000	         -0.52108787	          0.00000000	          0.00000000	          0.00000000	          0.00000000	
          1.55200000	        -25.15283715	        356.98247860	         -9.99281959	          0.91895939	          0.00000000	         -0.08323106	          0.00000000	          0.00000000	          0.00000000	          0.00000000	          0.00000000	          0.00000000	          0.00000000	         -0.49352631	          0.00000000	          0.00000000	          0.00000000	          0.00000000	
          1.55600000	        -23.61171998	        352.06667190	         -9.47131272	          0.91927976	          0.00000000	         -0.08334440	          0.00000000	          0.00000000	          0.00000000	          0.00000000	          0.00000000	          0.00000000	          0.00000000	         -0.47956955	          0.00000000	          0.00000000	          0.00000000	          0.00000000	
          1.56000000	        -22.29015804	        347.64784358	         -8.84303083	          0.91954038	          0.00000000	         -0.08344441	          0.00000000	          0.00000000	          0.00000000	          0.00000000	          0.00000000	          0.00000000	          0.00000000	         -0.47797207	          0.00000000	          0.00000000	          0.00000000	          0.00000000	
          1.56400000	        -21.09031649	        343.68482713	         -8.17130134	          0.91975057	          0.00000000	         -0.08352086	          0.00000000	          0.00000000	          0.00000000	          0.00000000	          0.00000000	          0.00000000	          0.00000000	         -0.48356182	          0.00000000	          0.00000000	          0.00000000	          0.00000000	
          1.56800000	        -19.87780155	        340.15018168	         -7.52410699	          0.91988044	          0.00000000	         -0.08356266	          0.00000000	          0.00000000	          0.00000000	          0.00000000	          0.00000000	          0.00000000	          0.00000000	         -0.48834997	          0.00000000	          0.00000000	          0.00000000	          0.00000000	
          1.57200000	        -18.50981903	        337.02335469	         -6.96552597	          0.91989029	          0.00000000	         -0.08355913	          0.00000000	          0.00000000	          0.00000000	          0.00000000	          0.00000000	          0.00000000	          0.00000000	         -0.48357868	          0.00000000	          0.00000000	          0.00000000	          0.00000000	
          1.57600000	        -16.86330925	        334.28049002	         -6.55052838	          0.91975923	          0.00000000	         -0.08350220	          0.00000000	          0.00000000	          0.00000000	          0.00000000	          0.00000000	          0.00000000	          0.00000000	         -0.46200712	          0.00000000	          0.00000000	          0.00000000	          0.00000000	
          1.58000000	        -14.86307437	        331.89448530	         -6.31852443	          0.91947969	          0.00000000	         -0.08338953	          0.00000000	          0.00000000	          0.00000000	          0.00000000	          0.00000000	          0.00000000	          0.00000000	         -0.41962532	          0.00000000	          0.00000000	          0.00000000	          0.00000000	
          1.58400000	        -12.50250289	        329.84057704	         -6.28682931	          0.91906606	          0.00000000	         -0.08322625	          0.00000000	          0.00000000	          0.00000000	          0.00000000	          0.00000000	          0.00000000	          0.00000000	         -0.35628768	          0.00000000	          0.00000000	          0.00000000	          0.00000000	
          1.58800000	         -9.84703268	        328.10870783	         -6.44732361	          0.91854501	          0.00000000	         -0.08302323	          0.00000000	          0.00000000	          0.00000000	          0.00000000	          0.00000000	          0.00000000	          0.00000000	         -0.27527238	          0.00000000	          0.00000000	          0.00000000	          0.00000000	
          1.59200000	         -7.01716386	        326.71702394	         -6.76769941	          0.91794839	          0.00000000	         -0.08278515	          0.00000000	          0.00000000	          0.00000000	          0.00000000	          0.00000000	          0.00000000	          0.00000000	         -0.18217631	          0.00000000	          0.00000000	          0.00000000	          0.00000000	
          1.59600000	         -4.15752691	        325.70710560	         -7.19766511	          0.91731830	          0.00000000	         -0.08251431	          0.00000000	          0.00000000	          0.00000000	          0.00000000	          0.00000000	          0.00000000	          0.00000000	         -0.08363796	          0.00000000	          0.00000000	          0.00000000	          0.00000000	
          1.60000000	         -1.40207461	        325.13418217	         -7.68138259	          0.91669793	          0.00000000	         -0.08221809	          0.00000000	          0.00000000	          0.00000000	          0.00000000	          0.00000000	          0.00000000	          0.00000000	          0.01382581	          0.00000000	          0.00000000	          0.00000000	          0.00000000	
          1.60400000	          1.15520370	        325.07459334	         -8.17238011	          0.91612275	          0.00000000	         -0.08190963	          0.00000000	          0.00000000	          0.00000000	          0.00000000	          0.00000000	          0.00000000	          0.00000000	          0.10484215	          0.00000000	          0.00000000	          0.00000000	          0.00000000	
          1.60800000	          3.47488665	        325.63142926	         -8.64235077	          0.91560110	          0.00000000	         -0.08159638	          0.00000000	          0.00000000	          0.00000000	          0.00000000	          0.00000000	          0.00000000	          0.00000000	          0.18608958	          0.00000000	          0.00000000	          0.00000000	          0.00000000	
          1.61200000	          5.57091741	        326.91849978	         -9.08251897	          0.91512567	          0.00000000	         -0.08127557	          0.00000000	          0.00000000	          0.00000000	          0.00000000	          0.00000000	          0.00000000	          0.00000000	          0.25695388	          0.00000000	          0.00000000	          0.00000000	          0.00000000	
          1.61600000	          7.49984286	        329.03773019	         -9.50171455	          0.91468882	          0.00000000	         -0.08093667	          0.00000000	          0.00000000	          0.00000000	          0.00000000	          0.00000000	          0.00000000	          0.00000000	          0.31965242	          0.00000000	          0.00000000	          0.00000000	          0.00000000	
          1.62000000	          9.34294023	        332.06280060	         -9.92271318	          0.91428689	          0.00000000	         -0.08057514	          0.00000000	          0.00000000	          0.00000000	          0.00000000	          0.00000000	          0.00000000	          0.00000000	          0.37862702	          0.00000000	          0.00000000	          0.00000000	          0.00000000	
          1.62400000	         11.18207361	        336.03023605	        -10.37765412	          0.91390684	          0.00000000	         -0.08020412	          0.00000000	          0.00000000	          0.00000000	          0.00000000	          0.00000000	          0.00000000	          0.00000000	          0.43931312	          0.00000000	          0.00000000	          0.00000000	          0.00000000	
          1.62800000	         13.07732764	        340.94465743	        -10.90205980	          0.91353358	          0.00000000	         -0.07984832	          0.00000000	          0.00000000	          0.00000000	          0.00000000	          0.00000000	          0.00000000	          0.00000000	          0.50671903	          0.00000000	          0.00000000	          0.00000000	          0.00000000	
          1.63200000	         15.05529646	        346.78817397	        -11.52655245	          0.91314809	          0.00000000	         -0.07953179	          0.00000000	          0.00000000	          0.00000000	          0.00000000	          0.00000000	          0.00000000	          0.00000000	          0.58433848	          0.00000000	          0.00000000	          0.00000000	          0.00000000	
          1.63600000	         17.10718670	        353.52067650	        -12.26913608	          0.91274253	          0.00000000	         -0.07927396	          0.00000000	          0.00000000	          0.00000000	          0.00000000	          0.00000000	          0.00000000	          0.00000000	          0.67371692	          0.00000000	          0.00000000	          0.00000000	          0.00000000	
          1.64000000	         19.19327360	        361.08262390	        -13.13055408	          0.91233643	          0.00000000	         -0.07908480	          0.00000000	          0.00000000	          0.00000000	          0.00000000	          0.00000000	          0.00000000	          0.00000000	          0.77466043	          0.00000000	          0.00000000	          0.00000000	          0.00000000	
